<?xml version="1.0" encoding="UTF-8" standalone="no"?>
<svg
   width="456"
   height="226"
   viewBox="0 0 456 226"
   version="1.1"
   xml:space="preserve"
   style="clip-rule:evenodd;fill-rule:evenodd;stroke-linejoin:round;stroke-miterlimit:2"
   id="svg5215"
   sodipodi:docname="splash.svg"
   inkscape:version="1.2 (dc2aedaf03, 2022-05-15)"
   xmlns:inkscape="http://www.inkscape.org/namespaces/inkscape"
   xmlns:sodipodi="http://sodipodi.sourceforge.net/DTD/sodipodi-0.dtd"
   xmlns="http://www.w3.org/2000/svg"
   xmlns:svg="http://www.w3.org/2000/svg"><defs
   id="defs5219" /><sodipodi:namedview
   id="namedview5217"
   pagecolor="#ffffff"
   bordercolor="#666666"
   borderopacity="1.0"
   inkscape:showpageshadow="2"
   inkscape:pageopacity="0.0"
   inkscape:pagecheckerboard="true"
   inkscape:deskcolor="#d1d1d1"
   showgrid="false"
   inkscape:zoom="0.73191755"
   inkscape:cx="-370.26028"
   inkscape:cy="121.5984"
   inkscape:window-width="3440"
   inkscape:window-height="1369"
   inkscape:window-x="-8"
   inkscape:window-y="-8"
   inkscape:window-maximized="1"
   inkscape:current-layer="svg5215" />
    
    
    
    
<g
   id="g206"
   transform="translate(0,-109.83477)"><path
     d="M 226.90899,109.97008 H 452.63834 V 335.69946 H 226.90899 Z"
     id="path91945-8"
     style="clip-rule:evenodd;fill:#000000;fill-opacity:1;fill-rule:nonzero;stroke:none;stroke-width:0.999995;stroke-linejoin:round;stroke-miterlimit:2"
     inkscape:label="background" /><path
     style="fill:#ffffff;fill-opacity:1;stroke-width:3.77953"
     d="m 282.90506,274.5099 c 0,-7.52758 0.0658,-13.23893 0.16435,-14.22082 0.55626,-5.55382 2.97105,-10.69435 6.86709,-14.61847 3.75438,-3.78151 7.81217,-5.92821 13.25017,-7.00964 1.21814,-0.24226 3.83629,-0.27761 27.41177,-0.37022 28.74779,-0.11294 26.81919,-0.0433 31.21443,-1.12962 6.79571,-1.67984 12.70734,-5.19439 17.14183,-10.19095 1.97428,-2.22451 3.17671,-4.00413 2.96846,-4.39331 -0.47493,-0.88735 -2.80691,-3.74645 -4.18611,-5.13232 -5.23881,-5.26426 -11.54764,-8.32856 -19.96465,-9.69725 -1.39633,-0.22706 -4.66004,-0.27009 -27.4909,-0.36254 -27.68246,-0.11205 -26.2258,-0.0692 -29.31313,-0.8644 -7.95171,-2.04821 -14.73169,-8.67241 -17.03071,-16.63922 -0.94619,-3.27903 -0.91921,-2.79607 -0.9874,-17.63135 l -0.0627,-13.67011 37.12557,0.048 37.12567,0.048 2.21831,0.36114 c 5.66524,0.92234 9.61871,2.16145 14.03347,4.39849 4.15497,2.10537 7.39897,4.45623 10.68827,7.74546 4.16261,4.16274 7.28078,8.93679 9.47218,14.50245 3.3136,8.41588 4.01829,18.74826 1.92145,28.17349 -0.48867,2.19691 -1.71179,5.94573 -2.51245,7.70098 l -0.57199,1.25402 0.6551,1.51885 c 2.57696,5.97438 3.78983,12.72399 3.57571,19.89898 -0.2208,7.40255 -1.70344,13.45263 -4.80071,19.59109 -6.71268,13.30346 -19.46889,21.7063 -35.07553,23.10507 -1.18568,0.10622 -14.39784,0.16353 -37.82976,0.16387 l -36.00755,3.6e-4 z m 74.86734,3.35138 c 4.62669,-0.76727 7.85418,-1.7687 11.37851,-3.53071 9.9995,-4.9992 16.57123,-14.45704 18.27346,-26.2985 0.36096,-2.51054 0.36523,-8.0134 0.0109,-10.37842 -0.29119,-1.92862 -0.88478,-4.78678 -1.04943,-5.05336 -0.0716,-0.11609 -0.77745,0.49254 -1.92371,1.65905 -7.16903,7.29542 -16.2048,11.50568 -27.40005,12.76716 -1.17384,0.13221 -9.12846,0.21565 -27.01557,0.2832 l -25.35198,0.0957 -1.23327,0.34782 c -5.3496,1.50872 -9.33275,5.4076 -11.00272,10.77003 l -0.43363,1.39252 -0.0497,9.1545 -0.0508,9.15451 32.13285,-0.0504 c 29.03278,-0.0455 32.28565,-0.0757 33.7173,-0.31315 z m 29.13403,-66.94122 c 0.63768,-3.05803 0.79775,-4.69953 0.79268,-8.12529 -0.0109,-6.18101 -1.13561,-11.18208 -3.69365,-16.3995 -1.8415,-3.756 -3.64906,-6.24133 -6.68801,-9.1958 -2.8239,-2.74543 -5.03154,-4.29784 -8.55894,-6.01868 -3.22859,-1.57507 -6.64312,-2.62324 -10.90687,-3.34816 -1.55241,-0.26393 -3.8123,-0.28611 -33.79647,-0.33153 l -32.13293,-0.0487 0.0497,9.15451 0.0497,9.15453 0.44297,1.42602 c 1.63793,5.27275 5.36156,8.99433 10.65233,10.64646 l 1.41593,0.44215 25.98569,0.0931 c 27.65616,0.0989 26.71474,0.073 30.83267,0.85374 8.86047,1.68012 16.54125,5.6842 22.64403,11.80463 1.84416,1.84955 2.31952,2.25042 2.40939,2.03167 0.0618,-0.14988 0.28711,-1.11246 0.50123,-2.13908 z"
     id="path1020"
     inkscape:label="bluos_path" /></g><g
   id="g202"
   transform="translate(0,-109.83477)"><path
     d="M 2.2320793,109.97008 H 227.96143 V 335.69946 H 2.2320793 Z"
     id="path91945"
     style="clip-rule:evenodd;fill:#d5002d;fill-opacity:1;fill-rule:nonzero;stroke:none;stroke-width:0.999995;stroke-linejoin:round;stroke-miterlimit:2"
     inkscape:label="background" /><g
     id="g2996"
     transform="matrix(0.54761227,0,0,0.54761227,-9.7588307,88.543054)"
     style="stroke-width:1.82612"><path
       d="m 135.64412,169.69118 h -0.3366 L 87.711746,77.32234 h -26.38907 v 132.64102 h 23.38135 v -94.58699 h 0.33211 l 48.938084,94.58699 h 25.0512 V 77.32234 h -23.3813 v 92.36884"
       id="path91949"
       style="fill:#ffffff;fill-opacity:1;fill-rule:nonzero;stroke:none;stroke-width:1.82612"
       inkscape:label="N_path" /><path
       d="m 203.81162,182.62042 h 44.2597 l 7.6816,27.34294 h 27.2221 L 240.72192,77.32234 h -28.8921 l -42.7579,132.64102 h 26.3891 z m 22.0477,-75.37031 h 0.3325 l 14.8625,52.46368 h -30.5623 l 15.3673,-52.46368"
       id="path91953"
       style="fill:#ffffff;fill-opacity:1;fill-rule:evenodd;stroke:none;stroke-width:1.82612"
       inkscape:label="A_path" /><path
       d="m 292.96522,209.96336 h 51.9413 c 39.5817,0 49.7708,-41.00998 49.7708,-69.46214 0,-25.12485 -8.3507,-63.17888 -48.7696,-63.17888 h -52.9425 z m 24.5511,-109.73438 h 24.05 c 10.6897,0 27.5588,3.14173 27.5588,42.30461 0,21.80227 -6.8485,44.52313 -27.2222,44.52313 h -24.3866 v -86.82774"
       id="path91957"
       style="fill:#ffffff;fill-opacity:1;fill-rule:evenodd;stroke:none;stroke-width:1.82612"
       inkscape:label="D_path" /></g></g></svg>
