<?xml version="1.0" encoding="UTF-8" standalone="no"?>
<svg
   width="450"
   height="450"
   viewBox="0 0 450 450"
   version="1.1"
   xml:space="preserve"
   style="clip-rule:evenodd;fill-rule:evenodd;stroke-linejoin:round;stroke-miterlimit:2"
   id="svg5215"
   sodipodi:docname="splash.svg"
   inkscape:version="1.2 (dc2aedaf03, 2022-05-15)"
   xmlns:inkscape="http://www.inkscape.org/namespaces/inkscape"
   xmlns:sodipodi="http://sodipodi.sourceforge.net/DTD/sodipodi-0.dtd"
   xmlns="http://www.w3.org/2000/svg"
   xmlns:svg="http://www.w3.org/2000/svg"><defs
   id="defs5219" /><sodipodi:namedview
   id="namedview5217"
   pagecolor="#ffffff"
   bordercolor="#666666"
   borderopacity="1.0"
   inkscape:showpageshadow="2"
   inkscape:pageopacity="0.0"
   inkscape:pagecheckerboard="true"
   inkscape:deskcolor="#d1d1d1"
   showgrid="false"
   inkscape:zoom="1.4638351"
   inkscape:cx="130.13761"
   inkscape:cy="119.54898"
   inkscape:window-width="3440"
   inkscape:window-height="1369"
   inkscape:window-x="-8"
   inkscape:window-y="-8"
   inkscape:window-maximized="1"
   inkscape:current-layer="svg5215" />
    
    
    
    
<g
   id="g14146"
   transform="matrix(0.72408498,0,0,0.72408498,62.507709,64.98096)"><g
     inkscape:label="BluOs_logo"
     id="layer1"
     transform="matrix(0.72980872,0,0,0.73095923,147.48005,188.66249)"
     style="clip-rule:evenodd;fill:#ffffff;fill-rule:evenodd;stroke:#ffffff;stroke-width:6.30287;stroke-linejoin:round;stroke-miterlimit:2;stroke-dasharray:none;stroke-opacity:1"><path
       style="fill:#ffffff;fill-opacity:1;stroke:#ffffff;stroke-width:6.30287;stroke-dasharray:none;stroke-opacity:1"
       d="m 10.65231,231.10048 c 0,-12.54248 0.109981,-22.05876 0.273845,-23.69477 0.926863,-9.25378 4.95033,-17.81895 11.441799,-24.35733 6.25554,-6.30075 13.016778,-9.87759 22.07747,-11.67946 2.029741,-0.40365 6.39206,-0.46257 45.673503,-0.61687 47.899673,-0.18817 44.686263,-0.0719 52.009723,-1.88218 11.32294,-2.79894 21.17304,-8.6549 28.56173,-16.98018 3.2895,-3.70648 5.29296,-6.67167 4.94591,-7.32013 -0.79127,-1.47851 -4.67673,-6.24232 -6.97477,-8.5515 -8.72896,-8.7713 -19.24068,-13.87706 -33.2651,-16.15755 -2.32665,-0.37833 -7.76461,-0.45005 -45.805503,-0.60407 C 43.466342,119.06968 45.893411,119.14125 40.749302,117.8162 27.500246,114.40345 16.203327,103.36619 12.372733,90.09188 10.796121,84.62837 10.841184,85.43305 10.727563,60.71449 l -0.104696,-22.77716 61.85876,0.0798 61.858763,0.0797 3.69612,0.60175 c 9.43951,1.53679 16.02667,3.6014 23.38266,7.32878 6.9229,3.50794 12.32814,7.42498 17.80867,12.90551 6.93595,6.93595 12.13144,14.89048 15.78267,24.164 5.52106,14.02254 6.69519,31.2384 3.20154,46.94274 -0.81432,3.66047 -2.85213,9.90676 -4.18615,12.83137 l -0.95307,2.08945 1.09156,2.5307 c 4.29364,9.95454 6.31448,21.20074 5.9578,33.15571 -0.36798,12.33417 -2.83824,22.41477 -7.99909,32.64273 -11.18471,22.16624 -32.43912,36.16706 -58.44273,38.4977 -1.97573,0.17708 -23.98985,0.27244 -63.032083,0.27302 l -59.995977,8e-4 z m 124.74411,5.58409 c 7.70906,-1.27843 13.08652,-2.94705 18.95885,-5.8829 16.66113,-8.32969 27.61101,-24.08837 30.44724,-43.81861 0.60131,-4.18308 0.60858,-13.35195 0.0137,-17.29256 -0.4851,-3.21342 -1.47414,-7.97572 -1.74865,-8.41989 -0.11951,-0.19337 -1.29529,0.82066 -3.20525,2.76431 -11.94499,12.15564 -27.0004,19.17078 -45.65391,21.27266 -1.95586,0.22039 -15.20989,0.35932 -45.013493,0.47185 l -42.241392,0.15949 -2.054984,0.57955 c -8.913573,2.51383 -15.550191,9.01013 -18.332657,17.94505 l -0.722542,2.32019 -0.08327,15.25328 -0.08327,15.25326 53.539775,-0.0839 c 48.374433,-0.0758 53.794483,-0.12617 56.179863,-0.52175 z m 48.54315,-111.53759 c 1.06239,-5.09529 1.3292,-7.83038 1.32069,-13.5384 -0.0153,-10.29879 -1.89213,-18.63158 -6.1543,-27.32489 -3.06829,-6.25825 -6.08004,-10.39928 -11.1436,-15.32203 -4.70529,-4.57445 -8.38366,-7.16109 -14.26099,-10.02836 -5.37942,-2.62436 -11.06867,-4.37083 -18.17294,-5.57868 -2.58673,-0.43978 -6.35216,-0.47672 -56.311873,-0.5524 l -53.539772,-0.0811 0.08327,15.25327 0.08327,15.25326 0.738121,2.37608 c 2.729172,8.78545 8.933454,14.98632 17.74888,17.73912 l 2.359171,0.73669 43.29743,0.15497 c 46.080743,0.16493 44.512283,0.1215 51.373483,1.42251 14.76336,2.79942 27.56103,9.47103 37.72946,19.66892 3.07281,3.08171 3.86494,3.74964 4.01468,3.38516 0.10261,-0.24973 0.47836,-1.85358 0.83502,-3.56412 z"
       id="path1020"
       inkscape:label="BluOs" /></g><path
     class="cls-1"
     d="M 431.56853,428.15284 H 17.252522 V 13.836828 H 431.56853 Z M 30.967142,414.43822 H 417.85391 V 27.551425 H 30.967142 Z M 131.15105,137.99734 h -0.28772 L 86.266842,51.412965 h -24.7439 V 175.6694 h 21.90508 V 87.090178 h 0.30687 L 129.59737,175.6694 h 23.43956 V 51.432162 h -21.88588 v 86.584388 m 71.27771,12.12256 h 41.46997 l 7.19299,25.53029 h 25.53029 L 237.01264,51.336247 h -27.084 L 169.85892,175.6694 h 24.7247 z m 20.65826,-70.644704 h 0.30689 l 13.94482,49.180834 H 208.6627 l 14.40514,-49.180834 m 68.91839,96.174994 h 48.68212 c 37.09665,0 46.62976,-38.36257 46.62976,-65.12049 0,-23.554624 -7.826,-59.212663 -45.70903,-59.212663 H 291.98623 Z M 315.00378,72.819293 h 22.51884 c 10.03185,0 25.81805,2.934738 25.81805,39.647747 0,20.42807 -6.42577,41.73849 -25.51113,41.73849 H 315.00378 V 72.915207"
     id="path6114"
     style="clip-rule:evenodd;fill:#ffffff;fill-rule:evenodd;stroke-width:2.30176;stroke-linejoin:round;stroke-miterlimit:2" /></g></svg>
