<?xml version="1.0" encoding="UTF-8" standalone="no"?>
<svg
   width="48"
   height="48"
   viewBox="0 0 48 48"
   version="1.1"
   id="svg26"
   sodipodi:docname="iconnad.svg"
   inkscape:version="1.2 (dc2aedaf03, 2022-05-15)"
   xmlns:inkscape="http://www.inkscape.org/namespaces/inkscape"
   xmlns:sodipodi="http://sodipodi.sourceforge.net/DTD/sodipodi-0.dtd"
   xmlns="http://www.w3.org/2000/svg"
   xmlns:svg="http://www.w3.org/2000/svg">
  <defs
     id="defs30" />
  <sodipodi:namedview
     id="namedview28"
     pagecolor="#ffffff"
     bordercolor="#666666"
     borderopacity="1.0"
     inkscape:showpageshadow="2"
     inkscape:pageopacity="0.0"
     inkscape:pagecheckerboard="0"
     inkscape:deskcolor="#d1d1d1"
     showgrid="false"
     inkscape:zoom="16.558084"
     inkscape:cx="3.925575"
     inkscape:cy="19.084334"
     inkscape:window-width="3440"
     inkscape:window-height="1369"
     inkscape:window-x="-8"
     inkscape:window-y="-8"
     inkscape:window-maximized="1"
     inkscape:current-layer="svg26" />
  <path
     id="path91945"
     style="clip-rule:evenodd;fill:#000000;fill-opacity:1;fill-rule:nonzero;stroke:none;stroke-width:0.999996;stroke-linejoin:round;stroke-miterlimit:2"
     inkscape:label="background"
     d="M 2 2 L 2 46 L 46 46 L 46 2 L 2 2 z M 6.2089844 6.0761719 L 9.0253906 6.0761719 L 14.105469 15.9375 L 14.142578 15.9375 L 14.142578 6.0761719 L 16.636719 6.0761719 L 16.636719 20.236328 L 13.962891 20.236328 L 8.7402344 10.138672 L 8.7050781 10.138672 L 8.7050781 20.236328 L 6.2089844 20.236328 L 6.2089844 6.0761719 z M 22.273438 6.0761719 L 25.357422 6.0761719 L 29.869141 20.236328 L 26.962891 20.236328 L 26.142578 17.316406 L 21.417969 17.316406 L 20.527344 20.236328 L 17.708984 20.236328 L 22.273438 6.0761719 z M 30.933594 6.0761719 L 36.585938 6.0761719 C 40.900352 6.0761719 41.791016 10.138423 41.791016 12.820312 C 41.791016 15.857366 40.703565 20.236328 36.478516 20.236328 L 30.933594 20.236328 L 30.933594 6.0761719 z M 33.554688 8.5214844 L 33.554688 17.791016 L 36.158203 17.791016 C 38.332943 17.791016 39.064453 15.364338 39.064453 13.037109 C 39.064453 8.8567657 37.264092 8.5214844 36.123047 8.5214844 L 33.554688 8.5214844 z M 23.771484 9.2714844 L 22.130859 14.871094 L 25.392578 14.871094 L 23.806641 9.2714844 L 23.771484 9.2714844 z " />
</svg>
