<?xml version="1.0" encoding="UTF-8" standalone="no"?>
<svg
   width="30"
   height="30"
   viewBox="0 0 30 30"
   version="1.1"
   id="svg26"
   sodipodi:docname="iconnad.svg"
   inkscape:version="1.2 (dc2aedaf03, 2022-05-15)"
   xmlns:inkscape="http://www.inkscape.org/namespaces/inkscape"
   xmlns:sodipodi="http://sodipodi.sourceforge.net/DTD/sodipodi-0.dtd"
   xmlns="http://www.w3.org/2000/svg"
   xmlns:svg="http://www.w3.org/2000/svg">
  <defs
     id="defs30" />
  <sodipodi:namedview
     id="namedview28"
     pagecolor="#ffffff"
     bordercolor="#666666"
     borderopacity="1.0"
     inkscape:showpageshadow="2"
     inkscape:pageopacity="0.0"
     inkscape:pagecheckerboard="0"
     inkscape:deskcolor="#d1d1d1"
     showgrid="false"
     inkscape:zoom="16.558084"
     inkscape:cx="4.0765586"
     inkscape:cy="19.084334"
     inkscape:window-width="3440"
     inkscape:window-height="1369"
     inkscape:window-x="-8"
     inkscape:window-y="-8"
     inkscape:window-maximized="1"
     inkscape:current-layer="svg26" />
  <path
     id="path91945"
     style="clip-rule:evenodd;fill:#000000;fill-opacity:1;fill-rule:nonzero;stroke:none;stroke-width:0.999991;stroke-linejoin:round;stroke-miterlimit:2"
     inkscape:label="background"
     d="M 0,0 V 29.999999 H 29.999999 V 0 Z m 2.869762,2.779208 h 1.920277 l 3.4636896,6.7236319 h 0.025303 V 2.779208 h 1.7005502 v 9.654651 H 8.1565164 L 4.5956142,5.5490945 H 4.571644 V 12.433859 H 2.869762 Z m 10.953036,0 h 2.102717 l 3.076172,9.654651 h -1.981535 l -0.559303,-1.990856 h -3.221326 l -0.607243,1.990856 h -1.921609 z m 5.904652,0 h 3.853871 c 2.941645,0 3.548916,2.7697167 3.548916,4.5982773 0,2.0707189 -0.741443,5.0563737 -3.622158,5.0563737 H 19.72745 Z m 1.78711,1.6672586 v 6.3201344 h 1.775123 c 1.482778,0 1.981535,-1.6545526 1.981535,-3.2412997 0,-2.8502338 -1.227519,-3.0788347 -2.005505,-3.0788347 z m -6.670367,0.5113635 -1.118608,3.8179154 h 2.2239 l -1.08132,-3.8179154 z" />
</svg>
